<?xml version="1.0" encoding="UTF-8"?>
<svg id="_레이어_1" data-name="레이어_1" xmlns="http://www.w3.org/2000/svg" version="1.1" viewBox="0 0 252.35 75.59">
  <!-- Generator: Adobe Illustrator 30.0.0, SVG Export Plug-In . SVG Version: 2.1.1 Build 123)  -->
  <defs>
    <style>
      .st0 {
        fill: #fff;
      }
    </style>
  </defs>
  <path class="st0" d="M26.37,29.03c-.15-3.24-.87-4.17-3.09-4.41l.21-.78c1.56.06,3.06.09,4.74.09,1.98,0,3.39-.03,4.95-.09l-.18.78c-1.8.12-2.43,1.35-2.46,3.06-.15,4.05,0,8.94.06,11.76.6-.87,6.15-8.58,6.84-9.57-.09-2.88-.3-5.01-2.55-5.25l.15-.78c1.47.06,2.46.09,4.14.09,1.98,0,3.51-.03,5.16-.09l-.18.78c-1.98.15-2.61,1.05-2.64,2.94,0,3.81.12,9.18.24,11.97,2.31-2.97,5.19-7.02,7.8-10.8,1.92-2.76,1.14-3.99-1.68-4.11l.21-.78c1.65.06,3.03.09,4.74.09,1.98,0,3.39-.03,4.62-.09l-.18.78c-1.5.27-2.97,1.02-5.22,3.75-4.47,5.58-9.15,11.88-12.48,16.32l-1.83.39c.03-3.27-.12-9.81-.18-13.11-.81,1.14-8.4,11.58-9.21,12.72l-1.74.39c0-4.26-.03-10.26-.24-16.05Z"/>
  <path class="st0" d="M55.02,45.02c-.78-.3-1.65-1.35-.99-3.75,1.23-4.11,4.26-12.54,5.16-16.56-.96-.09-2.22.21-2.91.57l-.24-.48c.69-.72,3.18-2.25,5.94-2.25.57,0,1.89.06,1.32,1.74-1.29,3.87-4.23,11.91-5.55,16.02l.24.12c2.19-4.26,5.88-9.57,8.28-9.57,1.14,0,2.49,1.53,2.52,2.34.06.96-1.68,4.89-2.43,6.99-.33.93-.66,2.04-.75,2.67,2.58.06,2.88-2.79,2.97-3.9l.57-.09c.36,3.63-1.5,6.33-5.46,6.21-1.86-.06-2.43-.84-1.47-3.42.96-2.55,1.92-4.56,2.82-7.5.18-.6,0-.63-.18-.78-.36.03-.81.42-1.23.78-2.52,2.37-6.27,7.98-7.38,10.98l-1.23-.12Z"/>
  <path class="st0" d="M70.7,41.81c.03-.96.18-2.01.69-3.42-.36-.03-.78-.06-1.05-.15l.21-.51c.33-.03.84-.09,1.14-.15.57-1.5,1.77-3.45,3.21-4.74,1.32-1.14,3.39-2.07,5.37-2.07,1.5,0,2.64,1.44,2.64,3.21,0,1.02-.48,1.74-2.28,2.58-1.35.66-3.84,1.32-5.49,1.59-.27.96-.51,1.92-.54,2.73-.06,1.41.42,2.34,1.71,2.34,1.83,0,2.94-1.65,3.72-3.9l.63-.03c-.63,3.87-2.67,5.88-6,5.88-2.34,0-3.96-1.11-3.96-3.36ZM78.56,36.08c.96-.57,1.38-1.53,1.41-2.43.09-.78-.21-1.77-.9-1.77-1.23,0-2.82,2.7-3.72,5.43,1.05-.24,2.16-.54,3.21-1.23Z"/>
  <path class="st0" d="M84.98,45.02c-.69-.21-1.68-1.17-.87-3.51,1.23-3.66,2.34-6.84,2.64-8.4-1.74-.06-2.7,2.25-2.64,3.75l-.66.09c-.12-3.81,2.04-6.06,5.28-6.12.75,0,1.59.09,2.49.36l-3.51,9.12.27.12c1.29-2.4,2.88-4.89,4.11-6.66,1.17-1.71,2.01-2.58,2.37-2.73,1.2-.27,2.64.15,2.64,1.62,0,.93-.48,1.65-1.32,1.98-.15-.15-.96-.63-1.53-.6-.45.09-1.05.57-1.71,1.26-2.34,2.43-5.43,7.53-6.3,9.84l-1.26-.12Z"/>
  <path class="st0" d="M95.45,41.81c.03-.96.18-2.01.69-3.42-.36-.03-.78-.06-1.05-.15l.21-.51c.33-.03.84-.09,1.14-.15.57-1.5,1.77-3.45,3.21-4.74,1.32-1.14,3.39-2.07,5.37-2.07,1.5,0,2.64,1.44,2.64,3.21,0,1.02-.48,1.74-2.28,2.58-1.35.66-3.84,1.32-5.49,1.59-.27.96-.51,1.92-.54,2.73-.06,1.41.42,2.34,1.71,2.34,1.83,0,2.94-1.65,3.72-3.9l.63-.03c-.63,3.87-2.67,5.88-6,5.88-2.34,0-3.96-1.11-3.96-3.36ZM103.31,36.08c.96-.57,1.38-1.53,1.41-2.43.09-.78-.21-1.77-.9-1.77-1.23,0-2.82,2.7-3.72,5.43,1.05-.24,2.16-.54,3.21-1.23Z"/>
  <path class="st0" d="M114.11,41.72c1.35-3.84,4.53-12.87,5.43-17.01-.93-.09-2.19.21-2.88.57l-.24-.48c.69-.72,3.18-2.25,5.94-2.25.57,0,1.89.06,1.32,1.77-2.22,6.42-5.7,16.29-6.03,18.51,3.09.06,3.48-3.12,3.54-3.87l.6-.09c.45,3.36-1.83,6.3-5.85,6.3-1.95,0-2.76-.72-1.83-3.45Z"/>
  <path class="st0" d="M123.35,39.92c0-1.59.48-3.15,1.23-4.53,1.5-2.82,4.35-4.68,7.02-4.59,2.91.06,4.5,2.34,4.47,5.28,0,1.56-.48,3.15-1.2,4.44-1.53,2.79-4.2,4.68-6.81,4.65-3.12-.03-4.71-2.25-4.71-5.25ZM131.75,38.3c.54-1.65.96-3.3,1.02-4.71.03-.9-.21-1.8-1.11-1.83-1.65-.03-3.03,3.3-3.69,5.16-.69,1.98-1.32,4.17-1.32,5.43,0,1.08.3,1.83,1.2,1.83,1.77.03,3.27-3.96,3.9-5.88Z"/>
  <path class="st0" d="M138.02,42.08c-.03-1.62.57-3.27,1.74-4.98.9-1.26,2.52-2.82,3.9-3.84-.36-.03-.75-.06-1.08-.06-2.46,0-4.23.63-4.2,3.66l-.51.09c-.84-3.51.6-6.03,4.32-6.03,1.02,0,2.49.12,3.84.63-1.23,1.41-2.28,3-2.97,4.56-.72,1.56-1.11,3.06-1.11,4.26s.66,1.86,1.65,1.89c1.26.03,2.7-1.26,3.66-3.03.75-1.26,1.2-2.85,1.26-4.11.06-1.35-.54-1.98-1.32-2.19l-.15-.36c.51-.69,1.59-1.71,2.67-1.71s1.44.93,1.41,1.92c-.12,1.92-1.44,5.01-3.27,7.59-1.62,2.31-3.75,4.8-6.57,4.8-1.77,0-3.24-.84-3.27-3.09Z"/>
  <path class="st0" d="M151.58,41.81c.03-.96.18-2.01.69-3.42-.36-.03-.78-.06-1.05-.15l.21-.51c.33-.03.84-.09,1.14-.15.57-1.5,1.77-3.45,3.21-4.74,1.32-1.14,3.39-2.07,5.37-2.07,1.5,0,2.64,1.44,2.64,3.21,0,1.02-.48,1.74-2.28,2.58-1.35.66-3.84,1.32-5.49,1.59-.27.96-.51,1.92-.54,2.73-.06,1.41.42,2.34,1.71,2.34,1.83,0,2.94-1.65,3.72-3.9l.63-.03c-.63,3.87-2.67,5.88-6,5.88-2.34,0-3.96-1.11-3.96-3.36ZM159.44,36.08c.96-.57,1.38-1.53,1.41-2.43.09-.78-.21-1.77-.9-1.77-1.23,0-2.82,2.7-3.72,5.43,1.05-.24,2.16-.54,3.21-1.23Z"/>
  <path class="st0" d="M171.68,45.02c-.69-.21-1.68-1.17-.87-3.51,1.23-3.66,2.34-6.84,2.64-8.4-1.74-.06-2.7,2.25-2.64,3.75l-.66.09c-.12-3.81,2.04-6.06,5.28-6.12.75,0,1.59.09,2.49.36l-3.51,9.12.27.12c1.29-2.4,2.88-4.89,4.11-6.66,1.17-1.71,2.01-2.58,2.37-2.73,1.2-.27,2.64.15,2.64,1.62,0,.93-.48,1.65-1.32,1.98-.15-.15-.96-.63-1.53-.6-.45.09-1.05.57-1.71,1.26-2.34,2.43-5.43,7.53-6.3,9.84l-1.26-.12Z"/>
  <path class="st0" d="M182.15,41.81c.03-.96.18-2.01.69-3.42-.36-.03-.78-.06-1.05-.15l.21-.51c.33-.03.84-.09,1.14-.15.57-1.5,1.77-3.45,3.21-4.74,1.32-1.14,3.39-2.07,5.37-2.07,1.5,0,2.64,1.44,2.64,3.21,0,1.02-.48,1.74-2.28,2.58-1.35.66-3.84,1.32-5.49,1.59-.27.96-.51,1.92-.54,2.73-.06,1.41.42,2.34,1.71,2.34,1.83,0,2.94-1.65,3.72-3.9l.63-.03c-.63,3.87-2.67,5.88-6,5.88-2.34,0-3.96-1.11-3.96-3.36ZM190.01,36.08c.96-.57,1.38-1.53,1.41-2.43.09-.78-.21-1.77-.9-1.77-1.23,0-2.82,2.7-3.72,5.43,1.05-.24,2.16-.54,3.21-1.23Z"/>
  <path class="st0" d="M193.13,42.59c0-.99.72-1.71,1.41-1.89l.75.18c.12,1.95,1.11,3.39,2.37,3.3.9-.09,1.38-.84,1.32-1.83,0-.93-.75-2.13-1.44-3.33-.87-1.47-1.5-2.88-1.5-4.14-.03-2.19,1.56-4.11,5.1-4.05,1.95.03,3.54.93,3.57,2.4.03.78-.48,1.71-2.1,1.92-.06-1.29-.54-3.36-1.86-3.33-.93,0-1.29.87-1.23,1.56.06.99.78,2.28,1.44,3.33.93,1.53,1.5,2.82,1.5,4.08-.06,2.49-2.04,4.23-5.07,4.35-2.1.09-4.23-.63-4.26-2.55Z"/>
  <path class="st0" d="M205.4,41.72c.99-3.24,1.8-5.58,2.7-8.31l-2.46-.39.24-.72,2.64-.42c.42-1.14.81-2.43,1.26-3.54.21-.51.39-.81,1.14-1.11.84-.33,2.76-.81,3.39-1.05l.27.63c-.75.36-1.14,1.35-1.38,2.04-.12.27-.93,2.76-1.02,3.03l3.75.27-.27.87-3.93.39c-1.65,5.07-2.43,7.41-2.85,9.42,2.52.15,3.69-1.95,3.78-3.9l.57-.09c.45,3.36-1.95,6.33-5.7,6.33-1.95,0-2.97-.78-2.13-3.45Z"/>
  <path class="st0" d="M213.89,42.59c0-.99.72-1.71,1.41-1.89l.75.18c.12,1.95,1.11,3.39,2.37,3.3.9-.09,1.38-.84,1.32-1.83,0-.93-.75-2.13-1.44-3.33-.87-1.47-1.5-2.88-1.5-4.14-.03-2.19,1.56-4.11,5.1-4.05,1.95.03,3.54.93,3.57,2.4.03.78-.48,1.71-2.1,1.92-.06-1.29-.54-3.36-1.86-3.33-.93,0-1.29.87-1.23,1.56.06.99.78,2.28,1.44,3.33.93,1.53,1.5,2.82,1.5,4.08-.06,2.49-2.04,4.23-5.07,4.35-2.1.09-4.23-.63-4.26-2.55Z"/>
  <path class="st0" d="M225.53,42.95c0-1.26,1.02-2.22,2.22-2.22,1.26,0,2.19.96,2.19,2.19s-.93,2.22-2.19,2.22-2.22-.96-2.22-2.19Z"/>
</svg>